<svg xmlns="http://www.w3.org/2000/svg" width="16" height="20" fill="none"><path fill="#fff" d="M5.185.007c-.34-.024-.688.01-1.03.108l-1.221.35C1.632.838.614 1.84.27 3.102c-.764 2.808.11 6.133 2.386 9.875 2.272 3.737 4.86 6.112 7.785 6.887 1.316.35 2.737.016 3.734-.882l.93-.835a2.665 2.665 0 0 0 .354-3.6l-1.342-1.766c-.72-.947-1.99-1.35-3.156-1.011l-2.101.61c-.088.024-.3-.092-.483-.246h-.001c-.327-.276-.78-.833-1.265-1.63-.52-.856-.742-1.415-.83-1.745-.09-.33-.068-.371-.055-.483a.234.234 0 0 1 .08-.148l.001-.001 1.567-1.388a2.659 2.659 0 0 0 .662-3.133L7.592 1.61v-.001C7.147.669 6.204.079 5.185.007Zm-.112 1.496c.474.035.91.31 1.11.732L7.13 4.23a1.172 1.172 0 0 1-.3 1.402L5.264 7.019c-.321.284-.527.67-.576 1.088v.001a2.89 2.89 0 0 0 .095 1.03c.138.51.422 1.187.994 2.127h.001c.534.877 1.038 1.542 1.584 2.002.178.149.921.839 1.932.553l.003-.001 2.11-.613a1.363 1.363 0 0 1 1.463.464l1.343 1.767c.38.502.314 1.184-.161 1.61l-.93.837c-.594.535-1.477.744-2.272.533-2.364-.627-4.703-2.655-6.858-6.2C1.83 8.665 1.157 5.73 1.768 3.484c.201-.741.82-1.356 1.606-1.581l1.22-.35c.16-.046.321-.062.48-.05Z"/></svg>